# xmcd CD database file
#
# Track frame offsets:
#	150
#	25385
#	37367
#	50998
#	69547
#	82006
#	106691
#	118694
#	131404
#	140517
#	153029
#	168931
#	182154
#
# Disc length: 2589 seconds
#
# Revision: 0
# Processed by: cddbd v1.5.1PL0 Copyright (c) Steve Scherf et al.
# Submitted via: CDex 1.51
#
DISCID=b60a1b0d
DTITLE=Wallis and Matilda - Songs of the Federation
DYEAR=2004
DGENRE=Country
TTITLE0=Song of The Federation
TTITLE1=Boots
TTITLE2=The Old Tin Hat
TTITLE3=We're All Australians Now
TTITLE4=Tom Collins
TTITLE5=Black Swans
TTITLE6=Morgan's Dog
TTITLE7=At the Melting of the Snow
TTITLE8=UnForgotten
TTITLE9=Our Own Flag
TTITLE10=Jim Dooleys Army
TTITLE11=The Uplift
TTITLE12=Federation
EXTD=YEAR: 2004
EXTT0=
EXTT1=
EXTT2=
EXTT3=
EXTT4=
EXTT5=
EXTT6=
EXTT7=
EXTT8=
EXTT9=
EXTT10=
EXTT11=
EXTT12=
PLAYORDER=
